<svg width="460" height="120" viewBox="0 0 460 120" xmlns="http://www.w3.org/2000/svg">
  <!-- E (Vert) -->
  <rect x="14" y="20" width="50" height="12" fill="#4CAF50"/>
  <rect x="14" y="20" width="12" height="80" fill="#4CAF50"/>
  <rect x="14" y="54" width="40" height="12" fill="#4CAF50"/>
  <rect x="14" y="88" width="50" height="12" fill="#4CAF50"/>
  
  <!-- S (Orange) -->
  <rect x="80" y="20" width="50" height="12" fill="#FF9800"/>
  <rect x="80" y="20" width="12" height="34" fill="#FF9800"/>
  <rect x="80" y="54" width="50" height="12" fill="#FF9800"/>
  <rect x="118" y="66" width="12" height="34" fill="#FF9800"/>
  <rect x="80" y="88" width="50" height="12" fill="#FF9800"/>
  
  <!-- G (Rouge) -->
  <rect x="146" y="20" width="50" height="12" fill="#F44336"/>
  <rect x="146" y="20" width="12" height="80" fill="#F44336"/>
  <rect x="146" y="54" width="30" height="12" fill="#F44336"/>
  <rect x="184" y="54" width="12" height="46" fill="#F44336"/>
  <rect x="146" y="88" width="50" height="12" fill="#F44336"/>
  
  <!-- Barre verticale séparatrice -->
  <rect x="210" y="20" width="4" height="80" fill="#666666"/>
  
  <!-- Stratégies (Gris) -->
  <text x="230" y="45" font-family="Arial, sans-serif" font-size="28" font-weight="300" fill="#666666">Stratégies</text>
</svg>