<svg xmlns="http://www.w3.org/2000/svg" viewBox="0 0 400 300">
  <defs>
    <linearGradient id="auditGrad" x1="0%" y1="0%" x2="100%" y2="100%">
      <stop offset="0%" style="stop-color:#4caf50;stop-opacity:1" />
      <stop offset="100%" style="stop-color:#81c784;stop-opacity:1" />
    </linearGradient>
    <linearGradient id="paperGrad" x1="0%" y1="0%" x2="100%" y2="100%">
      <stop offset="0%" style="stop-color:#ffffff;stop-opacity:1" />
      <stop offset="100%" style="stop-color:#f8f8f8;stop-opacity:1" />
    </linearGradient>
  </defs>
  
  <!-- Background -->
  <rect width="400" height="300" fill="url(#auditGrad)"/>
  
  <!-- Clipboard -->
  <rect x="120" y="40" width="160" height="220" rx="8" fill="url(#paperGrad)" stroke="#4caf50" stroke-width="2"/>
  <rect x="140" y="30" width="120" height="20" rx="4" fill="#4caf50"/>
  
  <!-- Checklist items -->
  <circle cx="145" cy="80" r="6" fill="#4caf50"/>
  <path d="M 142 80 L 145 83 L 150 76" stroke="white" stroke-width="2" fill="none"/>
  <rect x="160" y="75" width="100" height="3" fill="#666"/>
  <rect x="160" y="82" width="80" height="2" fill="#999"/>
  
  <circle cx="145" cy="110" r="6" fill="#4caf50"/>
  <path d="M 142 110 L 145 113 L 150 106" stroke="white" stroke-width="2" fill="none"/>
  <rect x="160" y="105" width="90" height="3" fill="#666"/>
  <rect x="160" y="112" width="70" height="2" fill="#999"/>
  
  <circle cx="145" cy="140" r="6" fill="#4caf50"/>
  <path d="M 142 140 L 145 143 L 150 136" stroke="white" stroke-width="2" fill="none"/>
  <rect x="160" y="135" width="85" height="3" fill="#666"/>
  <rect x="160" y="142" width="95" height="2" fill="#999"/>
  
  <circle cx="145" cy="170" r="6" fill="#4caf50"/>
  <path d="M 142 170 L 145 173 L 150 166" stroke="white" stroke-width="2" fill="none"/>
  <rect x="160" y="165" width="75" height="3" fill="#666"/>
  <rect x="160" y="172" width="85" height="2" fill="#999"/>
  
  <!-- Magnifying glass -->
  <circle cx="320" cy="80" r="25" fill="none" stroke="#4caf50" stroke-width="4"/>
  <circle cx="320" cy="80" r="15" fill="none" stroke="#4caf50" stroke-width="2"/>
  <line x1="340" y1="100" x2="355" y2="115" stroke="#4caf50" stroke-width="4" stroke-linecap="round"/>
  
  <!-- FREE badge -->
  <ellipse cx="320" cy="200" rx="35" ry="20" fill="#ff5722"/>
  <text x="320" y="207" text-anchor="middle" fill="white" font-family="Arial, sans-serif" font-size="12" font-weight="bold">GRATUIT</text>
  
  <!-- Chart/Graph -->
  <rect x="140" y="200" width="100" height="40" fill="none" stroke="#4caf50" stroke-width="1"/>
  <rect x="150" y="230" width="8" height="10" fill="#4caf50"/>
  <rect x="165" y="220" width="8" height="20" fill="#4caf50"/>
  <rect x="180" y="210" width="8" height="30" fill="#4caf50"/>
  <rect x="195" y="215" width="8" height="25" fill="#4caf50"/>
  <rect x="210" y="205" width="8" height="35" fill="#4caf50"/>
  <rect x="225" y="225" width="8" height="15" fill="#4caf50"/>
</svg>